# Blender v2.92.0 OBJ File: 'tree.blend'
# www.blender.org
mtllib tree.mtl
o Plane
v 0.000000 0.000000 -0.665226
v 0.502835 0.000000 0.340444
v -0.502835 0.000000 0.340444
v 0.068068 1.500000 -0.165717
v 0.094169 1.500000 0.141740
v -0.162237 1.500000 0.039638
v -0.214020 0.340489 0.216108
v -0.062960 0.340489 -0.322113
v 0.276980 0.340489 0.121667
v 0.088381 0.774065 -0.164424
v 0.083043 0.774065 0.156329
v -0.171424 0.774065 0.023757
vt 0.000000 0.000000
vt 0.000000 0.000000
vt 0.000000 0.000000
vt 0.000000 0.000000
vt 0.000000 0.000000
vt 0.000000 0.000000
vt 0.000000 0.000000
vt 0.000000 0.000000
vt 0.000000 0.000000
vt 0.000000 0.000000
vt 0.000000 0.000000
vt 0.000000 0.000000
vn 0.0000 0.3430 0.9393
vn -0.8601 0.2743 -0.4301
vn 0.9997 -0.0150 0.0166
vn -0.4620 -0.0136 0.8868
vn -0.5865 -0.0179 -0.8097
vn 0.8553 0.2926 -0.4276
vn -0.9625 -0.0253 -0.2701
vn -0.4231 0.4018 0.8121
vn 0.7926 -0.0558 -0.6072
vn 0.1507 0.6032 0.7832
vn -0.7821 0.5832 -0.2195
vn 0.9960 0.0277 -0.0846
vn -0.3698 0.0243 0.9288
vn -0.6653 0.0247 -0.7462
vn 0.6322 0.6049 -0.4842
vn -0.5248 0.4467 -0.7246
vn 0.1889 0.0060 0.9820
vn 0.9132 0.4073 0.0152
usemtl Material.002
s off
f 2/1/1 7/2/1 3/3/1
f 3/3/2 8/4/2 1/5/2
f 10/6/3 5/7/3 11/8/3
f 11/8/4 6/9/4 12/10/4
f 12/10/5 4/11/5 10/6/5
f 1/5/6 9/12/6 2/1/6
f 12/10/7 8/4/7 7/2/7
f 7/2/8 11/8/8 12/10/8
f 10/6/9 9/12/9 8/4/9
f 2/1/10 9/12/10 7/2/10
f 3/3/11 7/2/11 8/4/11
f 10/6/12 4/11/12 5/7/12
f 11/8/13 5/7/13 6/9/13
f 12/10/14 6/9/14 4/11/14
f 1/5/15 8/4/15 9/12/15
f 12/10/16 10/6/16 8/4/16
f 7/2/17 9/12/17 11/8/17
f 10/6/18 11/8/18 9/12/18
o Icosphere_Icosphere.002
v 0.000000 1.321066 0.000000
v 0.723600 1.873851 0.525720
v -0.276385 1.873851 0.850640
v -0.894425 1.873851 0.000000
v -0.276385 1.873851 -0.850640
v 0.723600 1.873851 -0.525720
v 0.380825 2.779324 0.529134
v -0.465067 2.669052 0.757525
v -0.865322 2.695910 -0.214381
v -0.069739 2.822781 -0.890025
v 0.714531 2.786156 -0.335685
v 0.000000 3.092791 0.000000
vt 0.818181 0.000000
vt 0.727272 0.157461
vt 0.909090 0.157461
vt 0.636363 0.000000
vt 0.545454 0.157461
vt 0.090909 0.000000
vt 0.000000 0.157461
vt 0.181818 0.157461
vt 0.272727 0.000000
vt 0.363636 0.157461
vt 0.454545 0.000000
vt 0.636363 0.314921
vt 0.818181 0.314921
vt 0.090909 0.314921
vt 0.272727 0.314921
vt 0.454545 0.314921
vt 1.000000 0.314921
vt 0.727272 0.472382
vt 0.909090 0.472382
vt 0.181818 0.472382
vt 0.363636 0.472382
vt 0.545454 0.472382
vn 0.1876 -0.7947 0.5774
vn 0.6071 -0.7947 0.0000
vn -0.4911 -0.7947 0.3568
vn -0.4911 -0.7947 -0.3568
vn 0.1876 -0.7947 -0.5774
vn 1.0000 0.0099 0.0000
vn 0.3071 0.1127 0.9450
vn -0.8029 -0.1222 0.5834
vn -0.8028 -0.1237 -0.5833
vn 0.3073 -0.1062 -0.9457
vn 0.8793 0.3316 0.3419
vn 0.2365 0.1682 0.9570
vn -0.9153 0.1317 0.3806
vn -0.6535 0.1112 -0.7487
vn 0.5739 0.1725 -0.8006
vn 0.4594 0.8689 0.1841
vn 0.0215 0.8669 0.4981
vn -0.4500 0.8681 0.2093
vn -0.3530 0.9027 -0.2462
vn 0.2543 0.9198 -0.2990
usemtl Material.001
s off
f 13/13/19 14/14/19 15/15/19
f 14/14/20 13/16/20 18/17/20
f 13/18/21 15/19/21 16/20/21
f 13/21/22 16/20/22 17/22/22
f 13/23/23 17/22/23 18/17/23
f 14/14/24 18/17/24 23/24/24
f 15/15/25 14/14/25 19/25/25
f 16/20/26 15/19/26 20/26/26
f 17/22/27 16/20/27 21/27/27
f 18/17/28 17/22/28 22/28/28
f 14/14/29 23/24/29 19/25/29
f 15/15/30 19/25/30 20/29/30
f 16/20/31 20/26/31 21/27/31
f 17/22/32 21/27/32 22/28/32
f 18/17/33 22/28/33 23/24/33
f 19/25/34 23/24/34 24/30/34
f 20/29/35 19/25/35 24/31/35
f 21/27/36 20/26/36 24/32/36
f 22/28/37 21/27/37 24/33/37
f 23/24/38 22/28/38 24/34/38
